# xmcd
# 
# Track frame offsets:
#     150
#     10206
#     19473
#     32343
#     41264
#     54988
#     63275
#     76011
#     86128
#     96853
#     109885
#     118215
#     127969
#     139171
#     154612
#     162601
#     171294
#     181771
#     187296
#     196413
#     205487
#     214570
# 
# Disc length: 3033
# 
# Revision: 1
# Processed by: cddbd v1.5.2PL0 Copyright (c) Steve Scherf et al.
# Submitted via: fre:ac v1.0.31
# 
DISCID=2f0bd716
DTITLE=Christmas - Chet Atkins The Complete RCA Victor and Columbua Christmas Recordings Disc 1
DYEAR=1953
DGENRE=Christmas
TTITLE0=The Bells of St. Mary's
TTITLE1=Jingle Bells [1955 ver.]
TTITLE2=Christmas Carols
TTITLE3=Sleigh Bells, Reindeer and Snow
TTITLE4=Greensleeves
TTITLE5=Jingle Bell Rock
TTITLE6=Winter Winderland
TTITLE7=Jolly Old St. Nicholas
TTITLE8=White Christmas
TTITLE9=Blue Christmas
TTITLE10=Jingle Bells [1961 ver.]
TTITLE11=Silver Bells
TTITLE12=Little Drummer Boy
TTITLE13=Medley: The Coventry Carol/God Bless Ye, Merry Gentlemen
TTITLE14=The First Noel
TTITLE15=Hark! The Herald Angels Sing
TTITLE16=O Come, All Ye Faithful
TTITLE17=Deck The Halls
TTITLE18=Silent Night
TTITLE19=I Heard the Bells on Christmas Day
TTITLE20=Winter Walkin'
TTITLE21=Ave Maria
EXTD=
EXTT0=
EXTT1=
EXTT2=
EXTT3=
EXTT4=
EXTT5=
EXTT6=
EXTT7=
EXTT8=
EXTT9=
EXTT10=
EXTT11=
EXTT12=
EXTT13=
EXTT14=
EXTT15=
EXTT16=
EXTT17=
EXTT18=
EXTT19=
EXTT20=
EXTT21=
PLAYORDER=
